<svg width="500" height="500" viewBox="0 0 500 500" fill="none" xmlns="http://www.w3.org/2000/svg">
<g clip-path="url(#clip0_134_2)">
<path d="M195.44 353V306.64H258.52C270.173 306.64 279.293 303.22 285.88 296.38C292.467 289.54 295.76 281.18 295.76 271.3C295.76 264.46 294.24 258.38 291.2 253.06C288.16 247.74 283.853 243.56 278.28 240.52C272.96 237.48 266.373 235.96 258.52 235.96H195.44V190.74H253.58C263.46 190.74 271.44 188.333 277.52 183.52C283.6 178.453 286.64 170.853 286.64 160.72C286.64 150.84 283.6 143.493 277.52 138.68C271.44 133.613 263.46 131.08 253.58 131.08H195.44V84.72H264.98C282.207 84.72 296.773 87.8867 308.68 94.22C320.84 100.553 330.087 109.04 336.42 119.68C342.753 130.32 345.92 142.1 345.92 155.02C345.92 171.487 340.6 185.42 329.96 196.82C319.32 208.22 303.613 216.073 282.84 220.38L284.36 200.24C306.907 204.547 324.26 213.287 336.42 226.46C348.833 239.633 355.04 255.847 355.04 275.1C355.04 289.793 351.367 303.093 344.02 315C336.927 326.653 326.54 335.9 312.86 342.74C299.433 349.58 283.22 353 264.22 353H195.44ZM149.84 353V84.72H208.74V353H149.84Z" fill="white"/>
<line x1="82" y1="416" x2="419" y2="416" stroke="#FFEB7C" stroke-width="40" stroke-linecap="round"/>
</g>
<defs>
<clipPath id="clip0_134_2">
<rect width="500" height="500" fill="white"/>
</clipPath>
</defs>
</svg>
